<?xml version="1.0" ?><!DOCTYPE svg  PUBLIC '-//W3C//DTD SVG 1.1//EN'  'http://www.w3.org/Graphics/SVG/1.1/DTD/svg11.dtd'><svg height="512px" style="enable-background:new 0 0 512 512;" version="1.1" viewBox="0 0 512 512" width="512px" xml:space="preserve" xmlns="http://www.w3.org/2000/svg" xmlns:xlink="http://www.w3.org/1999/xlink"><g><path fill="orange" d="M376,16H136C69.726,16,16,69.726,16,136v240c0,66.274,53.726,120,120,120h240c66.274,0,120-53.726,120-120V136   C496,69.726,442.274,16,376,16z M253,82.213v41.917c-69,0-125.669,56.87-125.669,125.87H85.385C85.385,157,161,82.213,253,82.213z    M313.985,243.812c3.06,1.904,4.929,5.282,4.929,8.885c0,3.604-1.869,6.979-4.929,8.888l-83.896,52.396   c-1.701,1.068-3.63,1.594-5.562,1.594c-1.742,0-3.523-0.441-5.095-1.301c-3.336-1.844-5.433-5.365-5.433-9.179V200.3   c0-3.813,2.097-7.313,5.433-9.183c3.293-1.823,7.413-1.737,10.646,0.296L313.985,243.812z M253,423.182   C161,423.182,85.385,348,85.385,256h41.946c0,69,56.669,125.262,125.669,125.262V423.182z M259,423.182v-41.92   c69,0,125.647-56.262,125.647-125.262h41.95C426.598,348,351,423.182,259,423.182z M384.647,250c0-69-56.647-125.87-125.647-125.87   V82.213C351,82.213,426.598,157,426.598,250H384.647z"/></g><g id="Layer_1"/></svg>